<svg version="1" xmlns="http://www.w3.org/2000/svg" width="933.333" height="933.333" viewBox="0 0 700.000000 700.000000"><path d="M488.8.5c-.2.2-3.2.6-6.8 1-5.5.6-13.7 2-23.5 4-9.8 2.1-32.7 11.2-42.6 17-3.3 1.9-6.3 3.5-6.6 3.5-1.1 0-17 11.6-23.3 17-7.1 6.1-18.8 17.8-22.3 22.4-1.2 1.5-3.4 4.2-4.8 6-14.3 17.3-30.2 52.5-33.5 74.1-.3 2.2-.8 4.3-1 4.7-1.8 2.9-2.6 41.5-1.1 53.4.9 7.7 4.4 24.4 5.8 28.1.6 1.5 1.2 3.5 1.4 4.3 1.9 8.8 12.9 31.9 21.5 45 28.6 43.6 78.1 74.1 129.5 79.8 8.1.9 34.3.9 43-.1 18.5-1.9 46.3-10.5 61.3-18.8 21.5-12 28.5-17.2 44.7-33.4 5.5-5.5 11.5-11.8 13.3-14 4.2-5.1 15.9-22.6 16.9-25.1.4-1.1 1.9-3.9 3.3-6.4 8-13.7 15.5-38.4 18.6-61.5 1-7.2 1.2-30.8.3-37.4-.4-3.1-1-7.8-1.4-10.5-2.3-18.2-11.1-44-20.2-59.4-2.4-4.1-4.3-7.5-4.3-7.7 0-.7-11.7-17.2-14.7-20.6-6.8-8-18.3-19.5-24.3-24.2-3.6-2.8-6.7-5.4-7-5.7-1.6-1.7-18.7-12.2-25.5-15.7-13.2-6.8-32.4-13.8-43-15.7-3.3-.6-6.6-1.3-10.5-2.1-6.1-1.2-11.5-1.6-26.7-1.9-8.9-.2-16.3-.2-16.5-.1zM136 182.5c-32.6 5.2-58.4 18.1-80.8 40.4-20.9 20.8-34.5 47-39.8 76.2-2.8 16-2.3 41.3 1.2 54.9.8 3 1.4 6.1 1.4 7 0 .8.6 2.7 1.4 4.1.7 1.4 1.6 3.9 2 5.5 1.2 4.6 6.5 16.3 10.9 23.9 9.7 16.7 25.2 34 40.3 44.7 16.7 11.9 39.3 21.4 57.9 24.4 2.2.3 4.4.8 4.9 1.1 1.9 1.2 32.4 1.1 40.1-.2 13.3-2.2 14.2-2.4 22.7-5.1 32.5-10.3 61.9-33.3 79.2-62.1 8.3-13.9 16.8-36.3 18.3-48.3.3-2.5.9-6.5 1.3-9 .5-2.5.7-11.5.6-20-.5-23.3-5.3-42.2-15.8-62-8.6-16.3-14.2-23.6-28.2-37.3-19.1-18.6-44-31.5-71-36.9-12.1-2.4-35.5-3-46.6-1.3zM471.8 422.5c-.2.2-2.5.5-5.3.8-7.9.9-11.5 1.7-19.4 4.3-26.2 8.6-46.8 26-60.9 51.4-3.4 6.2-8.7 20.6-9.7 26.6-.3 2.1-1 6.1-1.4 8.7-1.1 6.5-.6 28.5.6 32.8.6 1.9 1.6 6 2.4 9.2.7 3.2 1.6 6 2.1 6.3.4.3.8 1.2.8 2.1 0 .8 1.4 4.5 3.2 8.2 10.5 21.7 27.4 39 48.4 49.4 9.8 4.9 15.2 6.8 26.4 9.3 10.2 2.3 30.6 2.3 41.9-.1 35.2-7.3 64.4-31.9 77.2-65 1.7-4.4 3.3-8.9 3.6-10 5.2-21.1 4.9-41.6-.8-59.5-11.6-36.3-40.1-62.9-77.2-71.9-7.4-1.8-30.7-3.7-31.9-2.6zM204 515c-28.2 5.9-50.9 22.9-64.2 48.1-6.6 12.3-10.3 26.5-10.7 40.9-1.3 46.4 31.6 86.5 77.4 94.4 7.8 1.4 26.5 1.5 33 .2 24.8-5 47.1-19.9 60.7-40.7 10.3-15.8 14.9-30.5 15.3-49 .2-6.5-.1-13.9-.6-16.5-.5-2.7-1.2-6.3-1.5-7.9-1.1-6.2-7.8-21.3-12.9-29-21.2-32.2-59.6-48.2-96.5-40.5z"/></svg>